<svg id="Layer_1" data-name="Layer 1" xmlns="http://www.w3.org/2000/svg" xmlns:xlink="http://www.w3.org/1999/xlink" viewBox="0 0 144 144.08"><defs><style>.cls-1{fill:url(#linear-gradient);}.cls-2{fill:url(#linear-gradient-2);}.cls-3{fill:#f6f7ff;}</style><linearGradient id="linear-gradient" x1="72.11" y1="123.29" x2="72.11" y2="11.06" gradientUnits="userSpaceOnUse"><stop offset="0" stop-color="#e691c2"/><stop offset="0.37" stop-color="#84289d"/><stop offset="0.39" stop-color="#7f2699"/><stop offset="0.54" stop-color="#641d7f"/><stop offset="0.69" stop-color="#50166c"/><stop offset="0.85" stop-color="#441161"/><stop offset="1" stop-color="#40105d"/></linearGradient><linearGradient id="linear-gradient-2" x1="71.11" y1="78.2" x2="71.11" y2="90.48" xlink:href="#linear-gradient"/></defs><title>DeStoreArtboard 2</title><path class="cls-1" d="M141,65.24a9.25,9.25,0,0,0-11.66-1.14l-50.8-50.8A9.24,9.24,0,0,0,76.75,2.85h0a9.23,9.23,0,0,0-15.1,10L11.71,62.76A9.23,9.23,0,1,0,12,80.7l49.75,49.75A9.23,9.23,0,1,0,78.44,130l50.7-50.7a9.23,9.23,0,0,0,11.89-14ZM9.61,77.13a5.45,5.45,0,1,1,5.45-5.45A5.45,5.45,0,0,1,9.61,77.13ZM70.3,139.5a5.45,5.45,0,1,1,5.45-5.45A5.45,5.45,0,0,1,70.3,139.5Zm0-124.78a5.45,5.45,0,1,1,5.45-5.45A5.45,5.45,0,0,1,70.3,14.71Zm64.6,62.42a5.45,5.45,0,1,1,5.45-5.45A5.45,5.45,0,0,1,134.89,77.13Z"/><path class="cls-2" d="M97.85,69.61a8.82,8.82,0,0,1-2.58.37c-10.2,0-10.67-15-1.48-16.5a16.91,16.91,0,0,0-27.73,2.13,15.73,15.73,0,0,0-19,2.51,6.24,6.24,0,0,1,2.13,1.5,8.58,8.58,0,0,1,2.44,5.88v.17a8.64,8.64,0,0,1-2.44,5.88A8.4,8.4,0,0,1,43.26,74h-.1c.15.46.31.91.49,1.35a10.27,10.27,0,0,0,3,20.11,10.49,10.49,0,0,0,1.26,0H90.84a13.82,13.82,0,0,0,1.5,0,13.49,13.49,0,0,0,5.5-25.83Z"/><path class="cls-3" d="M96.81,65.51A16.92,16.92,0,0,0,66.05,51.92a15.74,15.74,0,0,0-22.4,19.72,10.27,10.27,0,0,0,3,20.11,10.5,10.5,0,0,0,1.26,0H90.84a13.83,13.83,0,0,0,1.5,0,13.5,13.5,0,0,0,4.47-26.25Z"/></svg>